<?xml version="1.0" encoding="UTF-8"?>
<svg width="143px" height="19px" viewBox="0 0 143 19" version="1.1" xmlns="http://www.w3.org/2000/svg" xmlns:xlink="http://www.w3.org/1999/xlink">
    <!-- Generator: Sketch 47.1 (45422) - http://www.bohemiancoding.com/sketch -->
    <title>logo copy</title>
    <desc>Created with Sketch.</desc>
    <defs></defs>
    <g id="Symbols" stroke="none" stroke-width="1" fill="none" fill-rule="evenodd">
        <g id="Header-Copy" transform="translate(-116.000000, -26.000000)">
            <g id="Header" transform="translate(113.000000, 16.000000)">
                <g id="logo-copy" transform="translate(3.000000, 0.000000)">
                    <path d="M8.075,22.4 L8.075,10.45 L12.35,10.45 L12.35,22.4 C12.35,24.2166758 11.8041721,25.6333283 10.7125,26.65 C9.62082788,27.6666718 8.2250085,28.175 6.525,28.175 C4.8249915,28.175 3.43333875,27.6708384 2.35,26.6625 C1.26666125,25.6541616 0.725,24.2333425 0.725,22.4 L4.975,22.4 C4.99166675,23.06667 5.14166525,23.5583318 5.425,23.875 C5.70833475,24.1916683 6.07499775,24.35 6.525,24.35 C6.97500225,24.35 7.34583188,24.1916683 7.6375,23.875 C7.92916813,23.5583318 8.075,23.06667 8.075,22.4 Z" id="Path" fill="#1B212E"></path>
                    <path d="M21.3625,14 C21.0208316,14.2833348 20.85,14.691664 20.85,15.225 C20.85,15.758336 21.0083318,16.1874984 21.325,16.5125 C21.6416683,16.8375016 22.0541641,17.0874991 22.5625,17.2625 C23.0708359,17.4375009 23.6374969,17.6041659 24.2625,17.7625 C24.8875031,17.9208341 25.5083303,18.1124989 26.125,18.3375 C26.7416698,18.5625011 27.3041641,18.841665 27.8125,19.175 C28.3208359,19.508335 28.7333318,19.9791636 29.05,20.5875 C29.3666683,21.1958364 29.525,21.9249958 29.525,22.775 C29.525,24.2583408 28.9208394,25.5291614 27.7125,26.5875 C26.5041606,27.6458386 24.9125099,28.175 22.9375,28.175 C20.9624901,28.175 19.3708394,27.7000048 18.1625,26.75 C16.9541606,25.7999953 16.35,24.4500088 16.35,22.7 L20.9,22.7 C21.0166673,24.100007 21.7333268,24.8 23.05,24.8 C23.6666698,24.8 24.1499983,24.6375016 24.5,24.3125 C24.8500018,23.9874984 25.025,23.5750025 25.025,23.075 C25.025,22.5749975 24.8666683,22.1666683 24.55,21.85 C24.2333318,21.5333318 23.8208359,21.2833343 23.3125,21.1 C22.8041641,20.9166658 22.2375031,20.7458341 21.6125,20.5875 C20.9874969,20.4291659 20.3666698,20.2333345 19.75,20 C19.1333303,19.7666655 18.5708359,19.4875016 18.0625,19.1625 C17.5541641,18.8374984 17.1416683,18.3708364 16.825,17.7625 C16.5083318,17.1541636 16.35,16.4333375 16.35,15.6 C16.35,13.9666585 16.9583273,12.6583383 18.175,11.675 C19.3916728,10.6916618 20.9458239,10.2 22.8375,10.2 C24.7291761,10.2 26.2583275,10.6291624 27.425,11.4875 C28.5916725,12.3458376 29.1999998,13.6999908 29.25,15.55 L24.6,15.55 C24.533333,14.9166635 24.3291684,14.4291684 23.9875,14.0875 C23.6458316,13.7458316 23.208336,13.575 22.675,13.575 C22.141664,13.575 21.7041684,13.7166653 21.3625,14 Z" id="Path" fill="#1B212E"></path>
                    <polygon id="Path" fill="#1B212E" points="44.325 10.4 48.6 10.4 48.6 28 44.325 28 37.175 16.925 37.175 28 32.9 28 32.9 10.4 37.175 10.4 44.325 21.475"></polygon>
                    <path d="M65.725,15.825 C65.725,17.0083392 65.3000043,18.1499945 64.45,19.25 C63.9999978,19.8166695 63.3291711,20.2791649 62.4375,20.6375 C61.5458289,20.9958351 60.4916728,21.175 59.275,21.175 L56.625,21.175 L56.625,28 L52.35,28 L52.35,10.45 L59.275,10.45 C61.3083435,10.45 62.891661,10.9749948 64.025,12.025 C65.158339,13.0750053 65.725,14.3416592 65.725,15.825 Z M56.625,17.925 L59.275,17.925 C59.9250032,17.925 60.4374981,17.7333352 60.8125,17.35 C61.1875019,16.9666647 61.375,16.4625031 61.375,15.8375 C61.375,15.2124969 61.1833353,14.700002 60.8,14.3 C60.4166648,13.899998 59.9083365,13.7 59.275,13.7 L56.625,13.7 L56.625,17.925 Z M80.9,19.175 C80.9,17.641659 80.4791709,16.4166713 79.6375,15.5 C78.7958291,14.5833287 77.6708404,14.125 76.2625,14.125 C74.8541596,14.125 73.7291709,14.5833287 72.8875,15.5 C72.0458291,16.4166713 71.625,17.641659 71.625,19.175 C71.625,20.708341 72.0458291,21.9333288 72.8875,22.85 C73.7291709,23.7666713 74.8541596,24.225 76.2625,24.225 C77.6708404,24.225 78.7958291,23.7666713 79.6375,22.85 C80.4791709,21.9333288 80.9,20.708341 80.9,19.175 Z M67.275,19.175 C67.275,16.574987 68.1458246,14.4291751 69.8875,12.7375 C71.6291754,11.0458249 73.7624874,10.2 76.2875,10.2 C78.8125126,10.2 80.9374914,11.0458249 82.6625,12.7375 C84.3875086,14.4291751 85.25,16.574987 85.25,19.175 C85.25,21.775013 84.383342,23.9249915 82.65,25.625 C80.916658,27.3250085 78.7916792,28.175 76.275,28.175 C73.7583207,28.175 71.6291754,27.3250085 69.8875,25.625 C68.1458246,23.9249915 67.275,21.775013 67.275,19.175 Z M107.475,10.45 L112.075,10.45 L107.175,28 L102.275,28 L99.2,16.875 L96.15,28 L91.25,28 L86.275,10.45 L90.85,10.45 L93.9,23.075 L97.025,10.45 L101.875,10.45 L104.875,22.875 L107.475,10.45 Z M124.75,10.4 L124.75,13.65 L118.4,13.65 L118.4,17.425 L124,17.425 L124,20.675 L118.4,20.675 L118.4,24.75 L124.75,24.75 L124.75,28 L114.125,28 L114.125,10.4 L124.75,10.4 Z M132.7,21.175 L132.7,28 L128.425,28 L128.425,10.45 L135.35,10.45 C137.383344,10.45 138.966661,10.9749948 140.1,12.025 C141.233339,13.0750053 141.8,14.3416592 141.8,15.825 C141.8,16.8416717 141.49167,17.8333285 140.875,18.8 C140.25833,19.7666715 139.250007,20.449998 137.85,20.85 L142.15,28 L137.15,28 L133.2,21.175 L132.7,21.175 Z M132.7,13.7 L132.7,17.925 L135.35,17.925 C136.000003,17.925 136.512498,17.7333352 136.8875,17.35 C137.262502,16.9666647 137.45,16.4625031 137.45,15.8375 C137.45,15.2124969 137.258335,14.700002 136.875,14.3 C136.491665,13.899998 135.983336,13.7 135.35,13.7 L132.7,13.7 Z" id="JSNPOWER-Copy" fill="#ED1C23"></path>
                </g>
            </g>
        </g>
    </g>
</svg>