<?xml version="1.0" encoding="UTF-8"?>
<svg width="153px" height="19px" viewBox="0 0 153 19" version="1.1" xmlns="http://www.w3.org/2000/svg" xmlns:xlink="http://www.w3.org/1999/xlink">
    <!-- Generator: Sketch 47.1 (45422) - http://www.bohemiancoding.com/sketch -->
    <title>logo-niche</title>
    <desc>Created with Sketch.</desc>
    <defs></defs>
    <g id="Page-1" stroke="none" stroke-width="1" fill="none" fill-rule="evenodd">
        <g id="Home-mouse-over" transform="translate(-1068.000000, -1582.000000)">
            <g id="logo-niche" transform="translate(1068.000000, 1582.000000)">
                <path d="M8.075,12.4 L8.075,0.45 L12.35,0.45 L12.35,12.4 C12.35,14.2166757 11.8041721,15.6333282 10.7125,16.65 C9.62082788,17.6666717 8.2250085,18.175 6.525,18.175 C4.8249915,18.175 3.43333875,17.6708384 2.35,16.6625 C1.26666125,15.6541616 0.725,14.2333425 0.725,12.4 L4.975,12.4 C4.99166675,13.06667 5.14166525,13.5583317 5.425,13.875 C5.70833475,14.1916682 6.07499775,14.35 6.525,14.35 C6.97500225,14.35 7.34583187,14.1916682 7.6375,13.875 C7.92916812,13.5583317 8.075,13.06667 8.075,12.4 Z M21.3625,4 C21.0208316,4.28333475 20.85,4.691664 20.85,5.225 C20.85,5.758336 21.0083318,6.18749837 21.325,6.5125 C21.6416683,6.83750162 22.0541641,7.08749912 22.5625,7.2625 C23.0708359,7.43750087 23.6374969,7.60416587 24.2625,7.7625 C24.8875031,7.92083412 25.5083302,8.11249887 26.125,8.3375 C26.7416698,8.56250112 27.3041641,8.841665 27.8125,9.175 C28.3208359,9.508335 28.7333317,9.97916362 29.05,10.5875 C29.3666682,11.1958364 29.525,11.9249957 29.525,12.775 C29.525,14.2583407 28.9208394,15.5291614 27.7125,16.5875 C26.5041606,17.6458386 24.9125099,18.175 22.9375,18.175 C20.9624901,18.175 19.3708394,17.7000047 18.1625,16.75 C16.9541606,15.7999952 16.35,14.4500087 16.35,12.7 L20.9,12.7 C21.0166672,14.100007 21.7333268,14.8 23.05,14.8 C23.6666697,14.8 24.1499982,14.6375016 24.5,14.3125 C24.8500018,13.9874984 25.025,13.5750025 25.025,13.075 C25.025,12.5749975 24.8666682,12.1666682 24.55,11.85 C24.2333317,11.5333317 23.8208359,11.2833342 23.3125,11.1 C22.8041641,10.9166657 22.2375031,10.7458341 21.6125,10.5875 C20.9874969,10.4291659 20.3666698,10.2333345 19.75,10 C19.1333302,9.7666655 18.5708359,9.48750162 18.0625,9.1625 C17.5541641,8.83749837 17.1416683,8.37083637 16.825,7.7625 C16.5083318,7.15416362 16.35,6.4333375 16.35,5.6 C16.35,3.9666585 16.9583272,2.65833825 18.175,1.675 C19.3916727,0.69166175 20.9458239,0.2 22.8375,0.2 C24.7291761,0.2 26.2583275,0.629162375 27.425,1.4875 C28.5916725,2.34583762 29.1999997,3.69999075 29.25,5.55 L24.6,5.55 C24.533333,4.9166635 24.3291684,4.42916837 23.9875,4.0875 C23.6458316,3.74583162 23.208336,3.575 22.675,3.575 C22.141664,3.575 21.7041684,3.71666525 21.3625,4 Z M44.325,0.4 L48.6,0.4 L48.6,18 L44.325,18 L37.175,6.925 L37.175,18 L32.9,18 L32.9,0.4 L37.175,0.4 L44.325,11.475 L44.325,0.4 Z" id="JSNFITNESS" fill="#1B212E"></path>
                <g id="Group" transform="translate(52.000000, 0.000000)" fill="#EF9900">
                    <polygon id="Path" points="0.35 18 0.35 0.45 11.775 0.45 11.775 3.7 4.625 3.7 4.625 7.475 9.975 7.475 9.975 10.725 4.625 10.725 4.625 18"></polygon>
                    <polygon id="Path" points="14.725 18 14.725 0.45 19 0.45 19 18"></polygon>
                    <polygon id="Path" points="21.55 3.7 21.55 0.45 35.4 0.45 35.4 3.7 30.6 3.7 30.6 18 26.325 18 26.325 3.7"></polygon>
                    <polygon id="Path" points="49.375 0.4 53.65 0.4 53.65 18 49.375 18 42.225 6.925 42.225 18 37.95 18 37.95 0.4 42.225 0.4 49.375 11.475"></polygon>
                    <polygon id="Path" points="68.025 0.4 68.025 3.65 61.675 3.65 61.675 7.425 67.275 7.425 67.275 10.675 61.675 10.675 61.675 14.75 68.025 14.75 68.025 18 57.4 18 57.4 0.4"></polygon>
                    <path d="M76.3375,4 C75.9958316,4.28333475 75.825,4.691664 75.825,5.225 C75.825,5.758336 75.9833317,6.18749837 76.3,6.5125 C76.6166682,6.83750162 77.0291641,7.08749912 77.5375,7.2625 C78.0458359,7.43750087 78.6124969,7.60416587 79.2375,7.7625 C79.8625031,7.92083412 80.4833303,8.11249887 81.1,8.3375 C81.7166697,8.56250112 82.2791641,8.841665 82.7875,9.175 C83.2958359,9.508335 83.7083318,9.97916362 84.025,10.5875 C84.3416683,11.1958364 84.5,11.9249957 84.5,12.775 C84.5,14.2583407 83.8958394,15.5291614 82.6875,16.5875 C81.4791606,17.6458386 79.8875099,18.175 77.9125,18.175 C75.9374901,18.175 74.3458394,17.7000047 73.1375,16.75 C71.9291606,15.7999952 71.325,14.4500087 71.325,12.7 L75.875,12.7 C75.9916673,14.100007 76.7083267,14.8 78.025,14.8 C78.6416697,14.8 79.1249983,14.6375016 79.475,14.3125 C79.8250017,13.9874984 80,13.5750025 80,13.075 C80,12.5749975 79.8416683,12.1666682 79.525,11.85 C79.2083318,11.5333317 78.7958359,11.2833342 78.2875,11.1 C77.7791641,10.9166657 77.2125031,10.7458341 76.5875,10.5875 C75.9624969,10.4291659 75.3416697,10.2333345 74.725,10 C74.1083303,9.7666655 73.5458359,9.48750162 73.0375,9.1625 C72.5291641,8.83749837 72.1166682,8.37083637 71.8,7.7625 C71.4833317,7.15416362 71.325,6.4333375 71.325,5.6 C71.325,3.9666585 71.9333273,2.65833825 73.15,1.675 C74.3666727,0.69166175 75.9208239,0.2 77.8125,0.2 C79.7041761,0.2 81.2333275,0.629162375 82.4,1.4875 C83.5666725,2.34583762 84.1749998,3.69999075 84.225,5.55 L79.575,5.55 C79.508333,4.9166635 79.3041684,4.42916837 78.9625,4.0875 C78.6208316,3.74583162 78.183336,3.575 77.65,3.575 C77.116664,3.575 76.6791684,3.71666525 76.3375,4 Z" id="Path"></path>
                    <path d="M92.5125,4 C92.1708316,4.28333475 92,4.691664 92,5.225 C92,5.758336 92.1583318,6.18749837 92.475,6.5125 C92.7916682,6.83750162 93.2041641,7.08749912 93.7125,7.2625 C94.2208359,7.43750087 94.7874969,7.60416587 95.4125,7.7625 C96.0375031,7.92083412 96.6583303,8.11249887 97.275,8.3375 C97.8916697,8.56250112 98.4541641,8.841665 98.9625,9.175 C99.4708359,9.508335 99.8833318,9.97916362 100.2,10.5875 C100.516668,11.1958364 100.675,11.9249957 100.675,12.775 C100.675,14.2583407 100.070839,15.5291614 98.8625,16.5875 C97.6541606,17.6458386 96.0625099,18.175 94.0875,18.175 C92.1124901,18.175 90.5208394,17.7000047 89.3125,16.75 C88.1041606,15.7999952 87.5,14.4500087 87.5,12.7 L92.05,12.7 C92.1666673,14.100007 92.8833267,14.8 94.2,14.8 C94.8166698,14.8 95.2999983,14.6375016 95.65,14.3125 C96.0000018,13.9874984 96.175,13.5750025 96.175,13.075 C96.175,12.5749975 96.0166683,12.1666682 95.7,11.85 C95.3833318,11.5333317 94.9708359,11.2833342 94.4625,11.1 C93.9541641,10.9166657 93.3875031,10.7458341 92.7625,10.5875 C92.1374969,10.4291659 91.5166697,10.2333345 90.9,10 C90.2833303,9.7666655 89.7208359,9.48750162 89.2125,9.1625 C88.7041641,8.83749837 88.2916682,8.37083637 87.975,7.7625 C87.6583318,7.15416362 87.5,6.4333375 87.5,5.6 C87.5,3.9666585 88.1083273,2.65833825 89.325,1.675 C90.5416728,0.69166175 92.0958239,0.2 93.9875,0.2 C95.8791761,0.2 97.4083275,0.629162375 98.575,1.4875 C99.7416725,2.34583762 100.35,3.69999075 100.4,5.55 L95.75,5.55 C95.683333,4.9166635 95.4791684,4.42916837 95.1375,4.0875 C94.7958316,3.74583162 94.358336,3.575 93.825,3.575 C93.291664,3.575 92.8541684,3.71666525 92.5125,4 Z" id="Path"></path>
                </g>
            </g>
        </g>
    </g>
</svg>